<svg width="24" xmlns="http://www.w3.org/2000/svg" height="24.615" fill="none"><g data-testid="facebook"><g class="fills"><rect rx="0" ry="0" width="24" height="24" class="frame-background"/></g><g data-testid="svg-path" class="frame-children"><path d="M18 2h-3a5 5 0 0 0-5 5v3H7v4h3v8h4v-8h3l1-4h-4V7a1 1 0 0 1 1-1h3Z" style="fill: none;" class="fills"/><g stroke-linecap="round" stroke-linejoin="round" class="strokes"><path d="M18 2h-3a5 5 0 0 0-5 5v3H7v4h3v8h4v-8h3l1-4h-4V7a1 1 0 0 1 1-1h3Z" style="fill: none; stroke-width: 2; stroke: rgb(213, 213, 213); stroke-opacity: 1;" class="stroke-shape"/></g></g></g></svg>