<svg width="24" xmlns="http://www.w3.org/2000/svg" height="24.615" fill="none"><g data-testid="linkedin"><g class="fills"><rect rx="0" ry="0" width="24" height="24" class="frame-background"/></g><g class="frame-children"><g data-testid="svg-path"><path d="M16 8a6 6 0 0 1 6 6v7h-4v-7a2 2 0 1 0-4 0v7h-4v-7a6 6 0 0 1 6-6Z" style="fill: none;" class="fills"/><g stroke-linecap="round" stroke-linejoin="round" class="strokes"><path d="M16 8a6 6 0 0 1 6 6v7h-4v-7a2 2 0 1 0-4 0v7h-4v-7a6 6 0 0 1 6-6Z" style="fill: none; stroke-width: 2; stroke: rgb(213, 213, 213); stroke-opacity: 1;" class="stroke-shape"/></g></g><g data-testid="svg-rect"><rect width="4" height="12" x="2" style="fill: none;" ry="0" rx="0" y="9" class="fills"/><g stroke-linejoin="round" stroke-linecap="round" class="strokes"><rect rx="0" ry="0" x="2" y="9" width="4" height="12" style="fill: none; stroke-width: 2; stroke: rgb(213, 213, 213); stroke-opacity: 1;" class="stroke-shape"/></g></g><g data-testid="svg-circle"><circle cy="4" style="fill: none;" cx="4" r="2" class="fills"/><g stroke-linecap="round" stroke-linejoin="round" class="strokes"><circle cx="4" cy="4" style="fill: none; stroke-width: 2; stroke: rgb(213, 213, 213); stroke-opacity: 1;" r="2" class="stroke-shape"/></g></g></g></g></svg>